<svg width="600" height="120" viewBox="0 0 600 120" xmlns="http://www.w3.org/2000/svg">

  <!-- Left vertical bar — Bauhaus -->
  <rect x="0" y="0" width="7" height="100" rx="0" fill="#10b981"/>

  <!-- Icon block -->
  <rect x="20" y="8" width="72" height="72" rx="10" fill="#0a0a0a"/>

  <!-- Speech bubble -->
  <rect x="33" y="19" width="46" height="32" rx="3" fill="#10b981"/>
  <polygon points="38,51 50,51 38,63" fill="#10b981"/>

  <!-- Question mark -->
  <text x="56" y="41" font-family="Arial, sans-serif" font-size="17" font-weight="700" fill="#0a0a0a" text-anchor="middle">?</text>

  <!-- AI thinking dots -->
  <circle cx="41" cy="68" r="2.8" fill="#059669"/>
  <circle cx="50" cy="68" r="2.8" fill="#059669"/>
  <circle cx="59" cy="68" r="2.8" fill="#059669"/>

  <!-- Wordmark -->
  <text x="106" y="62" font-family="Arial, sans-serif" font-size="42" font-weight="700" fill="#0a0a0a" letter-spacing="-1">Frag</text>
  <text x="231" y="62" font-family="Arial, sans-serif" font-size="42" font-weight="400" fill="#10b981" letter-spacing="-1">SMS</text>

  <!-- Precision underline -->
  <rect x="106" y="70" width="272" height="2.5" fill="#059669"/>

  <!-- Tagline -->
  <text x="106" y="88" font-family="Arial, sans-serif" font-size="11" font-weight="400" fill="#059669" letter-spacing="2.2">KI-ASSISTENT · PER SMS · FÜR ALLE</text>

  <!-- Care heart -->
  <path d="M381,74 C381,70.5 384.5,68 387.5,71 C390.5,68 394,70.5 394,74 C394,77.5 387.5,82 387.5,82 C387.5,82 381,77.5 381,74 Z" fill="none" stroke="#059669" stroke-width="1.5"/>
  <text x="398" y="82" font-family="Arial, sans-serif" font-size="10" fill="#059669">wir kümmern uns</text>

</svg>
