<svg width="600" height="120" viewBox="0 0 600 120" xmlns="http://www.w3.org/2000/svg">

  <!-- Dark background -->
  <rect x="0" y="0" width="600" height="120" rx="8" fill="#0a0a0a"/>

  <!-- Left vertical bar -->
  <rect x="20" y="10" width="7" height="80" rx="0" fill="#10b981"/>

  <!-- Icon block -->
  <rect x="40" y="14" width="62" height="62" rx="8" fill="rgba(16,185,129,0.15)"/>
  <rect x="40" y="14" width="62" height="62" rx="8" fill="none" stroke="#10b981" stroke-width="1.5"/>

  <!-- Speech bubble -->
  <rect x="52" y="24" width="38" height="26" rx="3" fill="#10b981"/>
  <polygon points="57,50 67,50 57,60" fill="#10b981"/>
  <text x="71" y="41" font-family="Arial, sans-serif" font-size="14" font-weight="700" fill="#0a0a0a" text-anchor="middle">?</text>

  <!-- AI dots -->
  <circle cx="55" cy="66" r="2.2" fill="#059669"/>
  <circle cx="63" cy="66" r="2.2" fill="#059669"/>
  <circle cx="71" cy="66" r="2.2" fill="#059669"/>

  <!-- Wordmark white -->
  <text x="118" y="62" font-family="Arial, sans-serif" font-size="38" font-weight="700" fill="#f5f5f5" letter-spacing="-1">Frag</text>
  <text x="232" y="62" font-family="Arial, sans-serif" font-size="38" font-weight="400" fill="#10b981" letter-spacing="-1">SMS</text>

  <!-- Underline -->
  <rect x="118" y="70" width="236" height="2" fill="#059669"/>

  <!-- Tagline -->
  <text x="118" y="86" font-family="Arial, sans-serif" font-size="10" fill="#059669" letter-spacing="2">KI-ASSISTENT · PER SMS · FÜR ALLE</text>

  <!-- Heart -->
  <path d="M364,72 C364,69 367,67 369.5,69.5 C372,67 375,69 375,72 C375,75 369.5,79 369.5,79 C369.5,79 364,75 364,72 Z" fill="none" stroke="#059669" stroke-width="1.5"/>

</svg>
